HIERARCHY
ROOT joint_0
{
	OFFSET 0.000000 0.000000 0.000000
	CHANNELS 6 Xposition Yposition Zposition Zrotation Yrotation Xrotation 
	JOINT joint_1
	{
		OFFSET 6.579712 -2.778931 100.531982
		CHANNELS 3 Zrotation Yrotation Xrotation
		JOINT joint_2
		{
			OFFSET -3.313232 -1.302856 91.974976
			CHANNELS 3 Zrotation Yrotation Xrotation
			JOINT joint_3
			{
				OFFSET -3.421509 -1.641846 91.864014
				CHANNELS 3 Zrotation Yrotation Xrotation
				JOINT joint_4
				{
					OFFSET 7.697388 -4.642578 123.278931
					CHANNELS 3 Zrotation Yrotation Xrotation
					JOINT joint_5
					{
						OFFSET 24.842529 -5.941528 79.695068
						CHANNELS 3 Zrotation Yrotation Xrotation
						End Site
						{
							OFFSET 0.000000 0.000000 0.000000
						}
					}
				}
				JOINT joint_6
				{
					OFFSET -0.159668 -29.112976 68.364014
					CHANNELS 3 Zrotation Yrotation Xrotation
					JOINT joint_7
					{
						OFFSET -18.356079 -115.987061 -20.069092
						CHANNELS 3 Zrotation Yrotation Xrotation
						JOINT joint_8
						{
							OFFSET 31.719482 -11.733276 -267.170898
							CHANNELS 3 Zrotation Yrotation Xrotation
							JOINT joint_9
							{
								OFFSET 29.329956 -5.879517 -234.654053
								CHANNELS 3 Zrotation Yrotation Xrotation
								End Site
								{
									OFFSET 0.000000 0.000000 0.000000
								}
							}
						}
					}
				}
				JOINT joint_10
				{
					OFFSET 8.802979 23.897949 69.798950
					CHANNELS 3 Zrotation Yrotation Xrotation
					JOINT joint_11
					{
						OFFSET 21.159058 115.524292 -19.981934
						CHANNELS 3 Zrotation Yrotation Xrotation
						JOINT joint_12
						{
							OFFSET 18.809204 5.403442 -268.593018
							CHANNELS 3 Zrotation Yrotation Xrotation
							JOINT joint_13
							{
								OFFSET 20.807861 0.421265 -235.639038
								CHANNELS 3 Zrotation Yrotation Xrotation
								End Site
								{
									OFFSET 0.000000 0.000000 0.000000
								}
							}
						}
					}
				}
			}
		}
	}
	JOINT joint_14
	{
		OFFSET -9.713379 -79.513916 -99.348022
		CHANNELS 3 Zrotation Yrotation Xrotation
		JOINT joint_15
		{
			OFFSET -40.607788 -6.518372 -502.938019
			CHANNELS 3 Zrotation Yrotation Xrotation
			JOINT joint_16
			{
				OFFSET -19.807617 -7.437378 -399.590012
				CHANNELS 3 Zrotation Yrotation Xrotation
				JOINT joint_17
				{
					OFFSET 171.701660 -44.751282 -77.782000
					CHANNELS 3 Zrotation Yrotation Xrotation
					End Site
					{
						OFFSET 0.000000 0.000000 0.000000
					}
				}
			}
		}
	}
	JOINT joint_18
	{
		OFFSET 17.854858 79.618652 -98.128052
		CHANNELS 3 Zrotation Yrotation Xrotation
		JOINT joint_19
		{
			OFFSET -24.848877 16.861816 -503.722992
			CHANNELS 3 Zrotation Yrotation Xrotation
			JOINT joint_20
			{
				OFFSET -30.162476 14.470093 -398.750008
				CHANNELS 3 Zrotation Yrotation Xrotation
				JOINT joint_21
				{
					OFFSET 176.096680 -10.987549 -80.021000
					CHANNELS 3 Zrotation Yrotation Xrotation
					End Site
					{
						OFFSET 0.000000 0.000000 0.000000
					}
				}
			}
		}
	}
}
MOTION
Frames: 9
Frame Time: 0.016667
-1038.156616 839.942932 1099.014038 8.858464 -1.349201 -0.493325 -0.128825 -2.950678 -1.041406 0.012226 0.434641 0.180282 -0.018690 -0.619895 -0.183493 0.341887 4.246352 -0.199405 0.000000 0.000000 0.000000 -0.765185 4.125904 -0.094805 0.072813 3.594652 2.385852 0.234905 -2.257131 1.475801 0.000000 0.000000 0.000000 1.375450 1.552077 2.127597 -0.042729 1.951538 -1.434805 0.080168 0.372400 0.896676 0.000000 0.000000 0.000000 1.742649 1.047964 -0.050168 1.699795 1.204265 0.404652 1.790945 -2.518800 0.155583 0.000000 0.000000 0.000000 -2.046375 1.732595 0.582634 -2.043675 0.780674 -0.067604 -2.039041 -1.003419 -0.988849 0.000000 0.000000 0.000000 
-1038.066406 840.031250 1099.006958 8.851760 -1.339404 -0.491197 -0.128332 -2.940258 -1.042543 0.012165 0.432205 0.179248 -0.018617 -0.617085 -0.182955 0.340274 4.249582 -0.193761 0.000000 0.000000 0.000000 -0.769745 4.120899 -0.091504 0.073272 3.589070 2.387266 0.234634 -2.260577 1.472884 0.000000 0.000000 0.000000 1.374042 1.546310 2.130609 -0.042978 1.946660 -1.435348 0.080355 0.371932 0.898945 0.000000 0.000000 0.000000 1.745391 1.042621 -0.057094 1.701956 1.204146 0.404596 1.793008 -2.517779 0.156793 0.000000 0.000000 0.000000 -2.043818 1.728341 0.574494 -2.041486 0.782108 -0.064293 -2.036983 -1.011579 -0.988418 0.000000 0.000000 0.000000 
-1037.973389 840.113037 1098.996948 8.846483 -1.329973 -0.490068 -0.129161 -2.931920 -1.046237 0.011088 0.431963 0.180217 -0.019730 -0.615990 -0.183393 0.338754 4.250110 -0.188829 0.000000 0.000000 0.000000 -0.772190 4.116759 -0.087849 0.073968 3.584293 2.391457 0.234300 -2.264965 1.469265 0.000000 0.000000 0.000000 1.375249 1.542827 2.132894 -0.042776 1.942359 -1.429361 0.079860 0.367269 0.893373 0.000000 0.000000 0.000000 1.747720 1.038766 -0.062547 1.703868 1.202272 0.404420 1.794776 -2.516824 0.157851 0.000000 0.000000 0.000000 -2.041743 1.725916 0.569021 -2.039687 0.780439 -0.063312 -2.035338 -1.018772 -0.988116 0.000000 0.000000 0.000000 
-1037.880493 840.191711 1098.985962 8.841808 -1.320798 -0.489610 -0.130577 -2.923547 -1.051591 0.009525 0.430144 0.182535 -0.021370 -0.614377 -0.184513 0.337037 4.249233 -0.183484 0.000000 0.000000 0.000000 -0.773192 4.112665 -0.083022 0.074662 3.579961 2.395869 0.233899 -2.268832 1.465176 0.000000 0.000000 0.000000 1.377231 1.540612 2.134137 -0.042305 1.938350 -1.419569 0.079092 0.360900 0.884685 0.000000 0.000000 0.000000 1.749790 1.035637 -0.067070 1.705612 1.199492 0.404265 1.796356 -2.515856 0.158827 0.000000 0.000000 0.000000 -2.039869 1.724527 0.565132 -2.038031 0.776954 -0.063725 -2.033843 -1.025102 -0.987829 0.000000 0.000000 0.000000 
-1037.786743 840.270569 1098.974976 8.835606 -1.311359 -0.489049 -0.131150 -2.918669 -1.056892 0.008914 0.431311 0.183317 -0.022048 -0.614059 -0.185065 0.335195 4.249101 -0.177592 0.000000 0.000000 0.000000 -0.774629 4.108457 -0.077574 0.075248 3.575761 2.398982 0.233439 -2.270212 1.461009 0.000000 0.000000 0.000000 1.378304 1.538610 2.134942 -0.041892 1.934887 -1.411258 0.078661 0.356553 0.879876 0.000000 0.000000 0.000000 1.752463 1.031920 -0.071696 1.707949 1.197347 0.403967 1.798544 -2.515533 0.159910 0.000000 0.000000 0.000000 -2.037456 1.723404 0.561091 -2.035888 0.772720 -0.063941 -2.031834 -1.031327 -0.987301 0.000000 0.000000 0.000000 
-1037.694336 840.351135 1098.963989 8.827937 -1.302133 -0.488805 -0.131724 -2.913583 -1.062013 0.008267 0.430225 0.184572 -0.022725 -0.612066 -0.185833 0.333768 4.249516 -0.172917 0.000000 0.000000 0.000000 -0.772868 4.103029 -0.071521 0.075472 3.571628 2.398440 0.233058 -2.268190 1.458127 0.000000 0.000000 0.000000 1.381558 1.536310 2.134584 -0.041713 1.931199 -1.406785 0.078916 0.356899 0.882918 0.000000 0.000000 0.000000 1.755839 1.028191 -0.076127 1.711013 1.195201 0.403534 1.801428 -2.514982 0.161369 0.000000 0.000000 0.000000 -2.035040 1.722849 0.557276 -2.033779 0.767993 -0.063874 -2.029816 -1.037422 -0.986761 0.000000 0.000000 0.000000 
-1037.602295 840.432678 1098.952026 8.818855 -1.293069 -0.488605 -0.132476 -2.909172 -1.066802 0.007405 0.428919 0.184623 -0.023569 -0.610891 -0.186145 0.332891 4.252408 -0.169518 0.000000 0.000000 0.000000 -0.767689 4.097472 -0.065417 0.075550 3.568184 2.396670 0.232660 -2.264386 1.455421 0.000000 0.000000 0.000000 1.387222 1.534635 2.134049 -0.041624 1.927998 -1.404107 0.079489 0.359509 0.889592 0.000000 0.000000 0.000000 1.759691 1.024390 -0.080594 1.714543 1.193234 0.403165 1.804786 -2.514810 0.162944 0.000000 0.000000 0.000000 -2.032396 1.722962 0.553451 -2.031496 0.762610 -0.063636 -2.027598 -1.043607 -0.986135 0.000000 0.000000 0.000000 
-1037.512573 840.511536 1098.941040 8.810153 -1.285034 -0.488791 -0.132647 -2.904848 -1.072548 0.007216 0.428898 0.185084 -0.023782 -0.610239 -0.186488 0.332276 4.253822 -0.167230 0.000000 0.000000 0.000000 -0.764859 4.091501 -0.058910 0.075770 3.563851 2.395544 0.232172 -2.259461 1.452121 0.000000 0.000000 0.000000 1.390282 1.532760 2.133724 -0.041503 1.925096 -1.401439 0.079960 0.360024 0.895219 0.000000 0.000000 0.000000 1.763168 1.021450 -0.084304 1.717778 1.191868 0.402547 1.807887 -2.515524 0.164171 0.000000 0.000000 0.000000 -2.029692 1.723428 0.549824 -2.029138 0.758473 -0.062904 -2.025323 -1.050134 -0.985505 0.000000 0.000000 0.000000 
-1037.425049 840.586670 1098.931030 8.801349 -1.277989 -0.489187 -0.131719 -2.899782 -1.080223 0.008255 0.427996 0.187462 -0.022860 -0.609099 -0.188035 0.332083 4.256205 -0.166126 0.000000 0.000000 0.000000 -0.764659 4.085352 -0.052837 0.076478 3.558196 2.397810 0.231330 -2.253017 1.446059 0.000000 0.000000 0.000000 1.387732 1.530578 2.134292 -0.041315 1.922897 -1.398077 0.080139 0.358121 0.897520 0.000000 0.000000 0.000000 1.766332 1.019230 -0.087271 1.720792 1.191082 0.401520 1.810818 -2.518042 0.164852 0.000000 0.000000 0.000000 -2.026781 1.724108 0.546114 -2.026568 0.756074 -0.061378 -2.022873 -1.057597 -0.984854 0.000000 0.000000 0.000000 
